<svg width="218" height="45" viewBox="0 0 218 45" fill="none" xmlns="http://www.w3.org/2000/svg">
<path d="M24.5181 26.6038C23.6155 28.1636 22.2291 29.4224 20.359 30.3802C18.489 31.3381 16.1679 31.8168 13.3956 31.8163H8.2697V43.4929H0V10.9622H13.3956C16.1037 10.9622 18.3915 11.4101 20.2591 12.306C22.1266 13.2019 23.5289 14.4376 24.4659 16.0131C25.4004 17.5885 25.868 19.3956 25.8685 21.4343C25.8709 23.3214 25.4208 25.0446 24.5181 26.6038ZM16.2969 24.4494C17.0708 23.7388 17.4578 22.7348 17.4578 21.4371C17.4578 20.1395 17.0708 19.1356 16.2969 18.4256C15.5231 17.7151 14.3463 17.3598 12.7667 17.3598H8.2697V25.5152H12.7667C14.3463 25.5152 15.5231 25.1599 16.2969 24.4494V24.4494Z" fill="white"/>
<path d="M60.7867 10.9622V43.4929H52.517V30.1022H39.654V43.4929H31.3843V10.9622H39.654V23.7074H52.517V10.9622H60.7867Z" fill="white"/>
<path d="M115.431 17.3133V23.8897H126.506V30.0057H115.431V37.1417H127.956V43.4893H107.162V10.9622H127.956V17.3105L115.431 17.3133Z" fill="white"/>
<path d="M164.902 43.4929H156.633L142.802 23.43V43.4929H134.532V10.9622H142.802L156.633 31.1201V10.9622H164.902V43.4929Z" fill="white"/>
<path d="M180.376 10.9622V43.4929H172.107V10.9622H180.376Z" fill="white"/>
<path d="M208.376 43.4929L201.461 33.5312L195.368 43.4929H185.99L196.87 26.9512L185.744 10.9622H195.368L202.186 20.7859L208.183 10.9622H217.564L206.78 27.368L218 43.4929H208.376Z" fill="white"/>
<path d="M100.308 30.7626C100.259 30.7569 100.209 30.7526 100.159 30.749C100.134 30.9149 100.112 31.0514 100.095 31.1501C99.958 31.9799 99.7669 32.8007 99.5226 33.6076C99.4838 33.7334 99.4438 33.8592 99.4025 33.985V33.9929C98.7087 36.1159 97.8568 37.8086 96.7981 39.1675C95.4904 40.8452 93.6783 42.0453 92.4287 42.8023C92.0089 43.0568 91.5797 43.2927 91.141 43.51C91.6961 43.2779 92.2402 43.0184 92.7733 42.7316C95.5933 41.2161 97.8292 39.0984 99.4809 36.3782C100.468 34.7522 101.17 32.9815 101.557 31.1372C101.168 30.9395 100.745 30.8125 100.308 30.7626V30.7626ZM83.5152 9.461C83.4604 9.81698 83.3886 10.1653 83.2996 10.5061C82.6841 12.8507 80.9757 14.8157 79.556 16.2654C78.6302 17.2104 77.5596 18.3634 76.5988 19.6808C77.2131 19.065 77.9264 18.5473 78.7115 18.1475C79.2576 17.4234 79.8514 16.7343 80.4371 16.0545C82.0574 14.1731 83.5883 12.396 84.1023 10.0557C84.1284 9.93564 84.1769 9.72262 84.2201 9.47029C83.9866 9.461 83.7516 9.45671 83.5152 9.45599V9.461ZM74.066 11.7348C71.2591 13.2225 68.9236 15.4089 67.3062 18.0631C65.6376 20.7666 64.8036 23.8165 64.8041 27.2128C64.8046 30.6092 65.6386 33.666 67.3062 36.3833C68.3494 38.1027 69.6967 39.6352 71.2878 40.9123C70.3344 39.9845 69.427 38.8236 68.5655 37.4297C67.8141 36.2107 67.2337 34.902 66.8392 33.5376C66.2484 31.4925 65.7635 28.3044 66.8146 24.7288C67.6464 21.9003 69.178 19.843 70.4202 18.3669C70.5604 18.2011 70.6997 18.0386 70.8379 17.8794C70.8379 17.8794 71.9077 16.5284 72.098 16.3297C72.2517 16.1696 72.4098 16.0037 72.4658 15.9294C72.9014 15.3512 73.2905 14.7421 73.6296 14.1073C74.0781 13.2687 74.4056 12.3756 74.6031 11.4525C74.4226 11.5426 74.2443 11.6348 74.066 11.7298V11.7348ZM77.3425 10.3617C77.4841 10.5885 77.6025 10.8279 77.6962 11.0765C77.7504 11.2182 77.7967 11.3626 77.8349 11.509C78.1472 11.0283 78.4191 10.5247 78.6481 10.0028C78.2072 10.1043 77.7722 10.2209 77.3425 10.3567V10.3617ZM92.7957 11.7348C91.2088 10.8849 89.4992 10.2646 87.7227 9.89418C88.2784 10.8002 88.5717 11.8319 88.5725 12.8828C88.5708 12.9832 88.5638 13.0834 88.5516 13.1831C88.5442 13.2371 88.5403 13.2915 88.5396 13.346C88.5598 13.3599 88.5813 13.3718 88.6038 13.3818C88.8276 13.484 89.176 13.5355 89.6378 13.5355C90.1479 13.5249 90.657 13.487 91.1627 13.4218C91.326 13.4032 91.4767 13.3868 91.6103 13.3739C92.5877 13.2883 93.5485 13.0768 94.4668 12.7449C93.9294 12.3778 93.3715 12.0389 92.7957 11.7298V11.7348ZM101.375 22.5065C100.729 22.8182 100.032 23.0193 99.3138 23.1005C99.401 23.1376 99.4913 23.1784 99.5846 23.2234C100.789 23.8103 101.458 24.7153 101.863 25.2871C101.775 24.348 101.612 23.4167 101.375 22.5015V22.5065ZM99.5032 18.0631C98.9903 17.2119 98.4025 16.4041 97.7463 15.6485C97.201 16.4462 96.3729 17.6064 95.9686 18.0131C97.1749 18.6893 98.7289 18.9216 100.019 18.981C99.8576 18.6674 99.6858 18.3598 99.5032 18.0581V18.0631Z" fill="white"/>
<path d="M94.639 34.4456C94.6407 34.4888 94.6389 34.532 94.6338 34.575C94.5801 35.0639 94.0885 35.7094 93.8214 36.1418C93.8102 36.1604 93.799 36.1797 93.7871 36.1983C93.7498 36.2605 93.7125 36.3234 93.6744 36.3856C93.6364 36.4478 93.5953 36.5143 93.5536 36.58C93.4864 36.6868 93.4158 36.7959 93.3417 36.9074C93.2932 36.9789 93.2432 37.0547 93.1925 37.129L93.1276 37.2241C93.097 37.2677 93.0657 37.3113 93.0351 37.3556C92.9545 37.4707 92.871 37.5836 92.7867 37.6966L92.7277 37.7759C92.6971 37.8152 92.6665 37.856 92.636 37.896L92.5681 37.9832C92.5084 38.0597 92.448 38.1362 92.386 38.2127L92.3278 38.2842C92.2846 38.3378 92.2406 38.3907 92.1958 38.4443L92.1458 38.5036L91.9966 38.6766L91.8944 38.7924C91.8772 38.8124 91.8593 38.8317 91.8422 38.851C91.825 38.8703 91.8101 38.8889 91.7922 38.9075L91.7176 38.9861C91.7057 38.9997 91.6937 39.0126 91.681 39.0254C91.6684 39.0383 91.6363 39.0726 91.6146 39.0969C91.593 39.1212 91.5863 39.1262 91.5729 39.1412C91.5594 39.1562 91.5438 39.172 91.5296 39.187L91.4363 39.2842C91.408 39.3142 91.3797 39.3435 91.3498 39.3728L91.3416 39.3814C91.323 39.3993 91.3051 39.4179 91.2864 39.4365C91.2677 39.455 91.2588 39.4636 91.2454 39.4779L91.1849 39.5372L91.1185 39.6023C91.1066 39.6137 91.0947 39.6259 91.082 39.6373L91.0477 39.6709L90.9999 39.7167L90.8791 39.8303L90.7873 39.9147L90.6948 39.9983L90.6694 40.0212C90.5695 40.1098 90.4687 40.1984 90.3651 40.2857L90.2017 40.4215L90.0629 40.533C90.0167 40.5702 89.9697 40.6045 89.9219 40.6438L89.813 40.7274L89.6959 40.8153L89.5907 40.8918L89.4773 40.9733L89.3975 41.0291C89.29 41.1044 89.1806 41.178 89.0692 41.25C89.0065 41.2907 88.9439 41.3314 88.8805 41.3708C88.8171 41.4101 88.7477 41.453 88.6805 41.493C88.6134 41.533 88.5313 41.5816 88.4567 41.6245C88.455 41.625 88.4532 41.625 88.4515 41.6245C88.3769 41.6667 88.3023 41.7081 88.2277 41.7482L88.2165 41.7546C88.1414 41.7951 88.0653 41.8352 87.9882 41.8747C87.9241 41.9076 87.8599 41.9405 87.7942 41.9719C87.7286 42.0034 87.6756 42.0298 87.6159 42.0577L87.4809 42.1206C84.2462 43.6089 80.3094 43.8169 76.7881 43.2343L76.7605 43.23L76.6904 43.2186L76.5852 43.2014L76.5173 43.19C76.2269 43.1385 75.9401 43.0818 75.6572 43.0198L75.5191 42.9884C75.4393 42.9691 75.3602 42.9491 75.2819 42.9269L75.1252 42.8805L75.0506 42.8561L74.9686 42.8297C74.7209 42.7477 74.4783 42.6522 74.2419 42.5438C73.1699 42.0534 72.2075 41.3114 71.3593 40.4544C70.3805 39.4658 69.5539 38.3249 68.887 37.2441C68.1526 36.0517 67.5852 34.7719 67.1995 33.4377C66.7518 31.8822 66.0633 28.6019 67.1741 24.822C67.1868 24.7798 67.1987 24.7383 67.2121 24.6969C67.762 22.8834 68.5975 21.3944 69.5248 20.0984C69.9075 19.5652 70.3066 19.0641 70.708 18.5866C70.8468 18.4227 70.985 18.2614 71.1228 18.1027C70.9505 18.3014 71.1064 19.4322 71.0952 19.721C71.0713 20.3501 71.0348 20.9784 71.0251 21.6074C70.9833 24.5017 71.6144 27.6734 72.9901 30.3883C74.051 32.4841 75.5564 34.3069 77.5364 35.52C78.9777 36.4026 80.6247 36.9294 82.3304 37.0532C83.5925 37.1621 84.8647 37.0517 86.0858 36.7273C87.5578 36.3227 89.02 35.57 90.095 34.4727C90.2688 34.2962 91.6042 32.7893 92.0018 32.1024C92.0498 32.0271 92.0859 31.9454 92.1093 31.8601C92.1182 31.8393 92.1272 31.8186 92.1354 31.7972C92.7389 32.1124 93.7132 32.7979 94.2511 33.5235C94.4794 33.8316 94.6293 34.1468 94.639 34.4456Z" fill="white"/>
<path d="M83.2374 8.61787C83.216 8.90046 83.1826 9.18067 83.1374 9.45849C83.0876 9.78159 83.021 10.1004 82.9375 10.4149C82.3697 12.5787 80.8486 14.4179 79.2819 16.0162C77.5071 17.8283 75.8323 19.7791 74.7185 22.0415C73.9093 23.6819 73.487 25.473 73.4816 27.2875L73.545 28.477C73.6777 29.7546 74.0444 30.9998 74.6282 32.1554C73.8641 31.1828 73.2226 30.1271 72.7169 29.0102C71.8455 27.1245 71.6352 25.1352 71.4815 23.0915C71.4069 22.138 71.4524 21.1665 71.4942 20.2265C71.5247 19.5317 71.5568 18.8126 71.5426 18.0964L71.5337 17.6396C71.5285 17.3537 72.555 16.4208 72.7691 16.1328C73.2154 15.5405 73.6144 14.9168 73.9628 14.2671C74.4699 13.3179 74.8262 12.3014 75.0199 11.2513C75.079 10.92 75.1191 10.586 75.14 10.2505C75.1778 9.62222 75.1548 8.99192 75.0713 8.36768C75.5889 8.76842 76.054 9.22755 76.4567 9.73513C76.5418 9.84235 76.6164 9.94314 76.6805 10.0339C76.788 10.1848 76.8879 10.3241 76.9789 10.4692C77.1267 10.6966 77.2492 10.9381 77.3445 11.1898C77.5683 11.7802 77.5206 12.0683 77.6586 12.1062C77.9421 12.1841 78.565 11.0961 79.0969 9.89024C79.1969 9.66436 79.2939 9.43347 79.3849 9.20616C79.4207 9.11681 79.4595 9.02817 79.4901 8.93882C80.0384 7.53849 80.489 6.17104 80.5852 4.65633C80.6874 3.06157 80.2943 1.56546 80.2122 0C82.3802 2.25954 83.4768 5.52984 83.2374 8.61787Z" fill="white"/>
<path d="M96.3962 13.4443C96.2723 13.6059 96.1455 13.766 96.0172 13.9254C94.3953 15.9398 92.4586 17.7783 90.3832 19.3938L90.1139 19.6082C89.0113 20.471 87.8758 21.3095 86.7262 22.1137C85.5475 22.94 84.1778 23.6863 83.3482 24.8743C82.5111 26.0702 82.0307 27.5677 81.7673 28.9738C81.2683 31.6443 82.1799 34.1283 84.5791 35.6323H84.5634C84.3298 35.6495 84.0951 35.6495 83.8614 35.6323C82.2276 35.5165 80.6602 34.6101 79.8329 33.2513C79.2637 32.322 78.9936 31.2455 78.5095 30.2747C77.9126 29.0903 77.1897 27.81 76.9137 26.5177C76.5838 24.9931 76.6452 23.4146 77.0927 21.9178C77.5613 20.3802 78.4356 19.0685 79.433 17.8269C81.3839 15.3893 83.7913 13.2206 84.4695 10.1333C84.4844 10.0618 84.5396 9.81232 84.5985 9.48994C84.644 9.23832 84.6918 8.94453 84.7238 8.66361C84.7828 8.14822 84.7873 7.67787 84.6261 7.59781C85.2822 7.92167 85.8831 8.33912 86.4084 8.83588C86.7141 9.12706 86.9871 9.44809 87.223 9.79373V9.79373C87.8586 10.7077 88.1992 11.7807 88.2026 12.8789C88.2026 13.2863 88.0399 13.5165 88.4465 13.7024C89.2433 14.0655 90.8002 13.8082 91.65 13.7281C92.7413 13.6338 93.8121 13.3859 94.828 12.9926C96.1456 12.4709 97.3015 11.6341 98.1851 10.5622L98.1993 10.5457C98.2009 10.5535 98.2029 10.5611 98.2053 10.5686C98.3858 10.6258 96.5648 13.2256 96.3962 13.4443Z" fill="white"/>
<path d="M98.2032 22.9714C98.1927 23.138 98.744 23.2123 99.4162 23.5397C100.578 24.1051 101.207 24.9929 101.597 25.5412C101.66 25.6298 101.718 25.7185 101.775 25.8071L101.831 25.8957C101.862 25.9472 101.893 25.998 101.922 26.0487C102.048 26.2661 102.161 26.4902 102.261 26.7199C102.64 27.592 102.763 28.3905 102.851 29.0016C102.975 29.867 102.979 30.7444 102.861 31.6107C102.554 31.3254 102.21 31.0783 101.839 30.8752C101.771 30.8387 101.701 30.8037 101.629 30.7701C101.612 30.7615 101.594 30.7536 101.576 30.7465C101.191 30.5687 100.778 30.4533 100.353 30.4048C100.181 30.3858 100.008 30.3781 99.8355 30.3819C99.7952 30.6807 99.7564 30.9245 99.728 31.0896C99.5932 31.9046 99.4056 32.7109 99.1663 33.5036C99.1268 33.6308 99.0865 33.7566 99.0454 33.8831C98.4591 35.6766 97.6772 37.4379 96.4985 38.9512C95.3593 40.4123 93.8128 41.5381 92.2275 42.4981C89.5654 44.1175 86.4806 44.9846 83.3274 45C82.7246 45 82.131 44.9736 81.5466 44.9207L81.487 44.9149C80.4299 44.8109 79.385 44.614 78.3656 44.3266C77.5866 44.1076 76.8239 43.8384 76.0828 43.521C75.9701 43.4724 75.8589 43.4224 75.7448 43.3724C75.418 43.2237 75.0948 43.0655 74.775 42.8977C74.6071 42.8091 74.4378 42.7197 74.2759 42.6211C74.5124 42.6804 74.7421 42.7583 74.9734 42.8355L75.0555 42.862L75.1301 42.8863L75.2867 42.9327C75.3651 42.9549 75.4442 42.9756 75.524 42.9942L75.662 43.0257C75.9164 43.0843 76.2029 43.1422 76.5222 43.1958L76.5901 43.2072L76.6952 43.2244L76.7654 43.2358L76.793 43.2401L76.8929 43.2551C78.7707 43.5339 81.5847 43.6483 85.1298 42.8977C85.9426 42.7272 86.7327 42.4692 87.485 42.1286L87.62 42.0657C87.6797 42.0378 87.7394 42.0092 87.7983 41.9799C87.8573 41.9506 87.9282 41.9156 87.9923 41.8827C88.0694 41.8436 88.1455 41.8036 88.2206 41.7626L88.2318 41.7561C88.3064 41.7161 88.381 41.6747 88.4556 41.6325C88.4573 41.6329 88.4591 41.6329 88.4608 41.6325C88.5354 41.5896 88.61 41.546 88.6846 41.501C88.7592 41.4559 88.8182 41.4202 88.8846 41.3787C88.951 41.3373 89.0106 41.2987 89.0733 41.2579C89.1842 41.186 89.2936 41.1123 89.4016 41.037L89.4814 40.9813L89.5948 40.8998L89.7 40.8233L89.8171 40.7354L89.926 40.6518C89.9738 40.6153 90.0208 40.5803 90.067 40.541L90.2058 40.4294C90.3154 40.3401 90.4229 40.2472 90.5295 40.155C90.587 40.1049 90.6437 40.0556 90.6996 40.0056C90.7556 39.9555 90.8227 39.894 90.8832 39.8376C91.4949 39.2652 92.0586 38.6476 92.5692 37.9905L92.6371 37.9026C92.6878 37.8361 92.7385 37.7696 92.7863 37.7038C92.8698 37.5909 92.9534 37.4772 93.0347 37.3629C93.0653 37.3186 93.0966 37.2749 93.1272 37.2313L93.1921 37.1363C93.2428 37.0648 93.2928 36.9876 93.3413 36.9147C93.4149 36.8032 93.4855 36.694 93.5532 36.5873C93.595 36.5215 93.6353 36.4572 93.6741 36.3929C93.7128 36.3285 93.7486 36.2671 93.7867 36.2056C93.7986 36.187 93.8098 36.1677 93.821 36.1491C94.1233 35.6423 94.3946 35.1192 94.6334 34.5822C94.6707 34.4972 94.6886 34.4514 94.6886 34.4514C94.6875 34.1316 94.6653 33.8121 94.6222 33.495C94.4108 32.0113 93.793 30.6077 92.8318 29.4269L92.8116 29.4019C91.627 27.9423 89.97 26.8343 88.093 26.3897C88.5368 25.9253 89.072 25.5494 89.6679 25.2838C88.3101 25.5355 86.9673 25.9543 85.8199 26.6928C84.6725 27.4312 83.731 28.5141 83.3632 29.7915C82.879 31.482 83.4378 33.2469 84.201 34.8667C82.4725 33.4864 81.7391 31.4041 82.1808 29.0452C82.4941 27.369 83.1648 25.7528 83.9712 24.7227C84.4308 24.1387 85.1149 23.6826 85.7766 23.2423C85.9795 23.1072 86.1899 22.9664 86.3913 22.8249C87.25 22.2187 88.2228 21.531 89.1636 20.8348C89.5988 20.5131 90.0108 20.2015 90.3997 19.8998C90.5131 19.8119 90.6235 19.7254 90.7332 19.6389C92.0199 18.6415 93.2345 17.5615 94.3686 16.4065C95.1087 15.6438 95.7547 14.9168 96.3277 14.202C96.4669 14.029 96.6015 13.8567 96.7313 13.6852C96.7723 13.6316 96.8133 13.5772 96.8529 13.5236L97.0968 13.2005C97.5586 12.5901 98.0331 11.9625 98.3651 11.2662C98.6963 12.9818 98.3397 14.009 97.9853 14.608C97.951 14.6659 97.9033 14.7417 97.8451 14.8332C97.7518 14.9762 97.6302 15.1613 97.4922 15.3643C96.867 16.2836 95.9002 17.6238 95.6189 17.8354C95.5496 17.889 95.4697 17.9534 95.4697 18.0384C95.4697 18.1421 95.5966 18.2164 95.6413 18.2429C97.0073 19.0613 98.8313 19.2979 100.2 19.3444C100.378 19.3508 100.548 19.3537 100.708 19.3544H100.753C101.218 19.3569 101.682 19.3361 102.144 19.2922C102.499 19.2536 102.986 19.19 103.562 19.0821C103.502 19.4929 103.376 19.8923 103.189 20.2665C102.841 20.942 102.311 21.5162 101.654 21.9299C101.642 21.9378 101.63 21.9449 101.62 21.9514L101.53 22.0064C101.445 22.0579 101.36 22.1055 101.275 22.1494C99.7497 22.9457 98.2218 22.6912 98.2032 22.9714Z" fill="white"/>
</svg>
